<?xml version="1.0" encoding="utf-8"?>
<!-- Generator: Adobe Illustrator 21.1.0, SVG Export Plug-In . SVG Version: 6.00 Build 0)  -->
<svg version="1.1" id="Layer_1" xmlns="http://www.w3.org/2000/svg" xmlns:xlink="http://www.w3.org/1999/xlink" x="0px" y="0px"
	 viewBox="0 0 512 512" enable-background="new 0 0 512 512" xml:space="preserve">
<g id="XMLID_229_">
	<g id="XMLID_690_">
		<g id="XMLID_691_">
			<g>
				<g id="XMLID_44_">
					<g id="XMLID_48_">
						<path id="XMLID_49_" fill="#0080FF" d="M182.2,335.3v-56.4c59.7,0,106.1-59.2,83.1-122.1c-8.4-23.3-27.1-41.9-50.3-50.3
							C152.2,83.8,93,129.9,93,189.7l0,0H36.8c0-95.2,92-169.4,191.8-138.2c43.5,13.7,78.3,48.3,91.9,91.9
							C351.6,243.3,277.6,335.3,182.2,335.3z"/>
					</g>
					<polygon id="XMLID_47_" fill="#0080FF" points="182.4,279 126.3,279 126.3,223 126.3,223 182.4,223 182.4,223 					"/>
					<polygon id="XMLID_46_" fill="#0080FF" points="126.3,322.3 83.1,322.3 83.1,322.3 83.1,279 126.3,279 					"/>
					<path id="XMLID_45_" fill="#0080FF" d="M83.1,279H47l0,0v-36.1l0,0h36.1l0,0V279z"/>
				</g>
			</g>
		</g>
	</g>
</g>
<g id="Multicolor">
	<g>
		<path fill="#F7B4B4" d="M345.8,395.5H333h-12.8c-4.1,0-8.1-1.7-10.8-4.8l-24.6-19.2v21.7c0,0,0,36.1,48.1,36.1
			s48.1-36.1,48.1-36.1v-21.7l-24.6,19.2C353.8,393.8,349.8,395.5,345.8,395.5z"/>
		<path fill="#FBC8C8" d="M309.4,390.7l-24.6-19.2v21.7c0,0,0,36.1,48.1,36.1v-33.7h-12.8C316.1,395.5,312.2,393.8,309.4,390.7z"/>
		<path fill="#FBC8C8" d="M414.8,295.5c0-5.3-4.8-10.7-9.6-10.7s-4.8,5.3-4.8,5.3v-5.3c-0.1-43.3-4.9-72.2-67.4-72.2
			s-67.3,28.9-67.4,72.2v38.5l19.3,48.1l24.6,19.2c2.7,3.1,6.7,4.8,10.8,4.8H333h12.8c4.1,0,8.1-1.7,10.8-4.8l24.6-19.2l15.5-38.6
			C410.2,331.9,414.8,311.2,414.8,295.5z"/>
		<path fill="#FBD7D7" d="M265.6,284.8v5.3c0,0,0-5.3-4.8-5.3s-9.6,5.3-9.6,10.7c0,15.7,4.6,36.3,18.3,37.3l15.5,38.6l24.6,19.2
			c2.7,3.1,6.7,4.8,10.8,4.8H333V212.6C270.5,212.6,265.7,241.5,265.6,284.8z"/>
		<g>
			<path fill="#F79392" d="M308.9,342.6H357c0,0,0,19.1-24.1,19.1C308.9,361.6,308.9,342.6,308.9,342.6z"/>
		</g>
		<g>
			<polygon fill="#FFFFFF" points="390.7,395.5 381.1,390.7 333,429.3 284.8,390.7 275.2,395.5 333,487 			"/>
		</g>
		<g>
			<path fill="#DA5A47" d="M178.9,487l19.3-52.9c2.9-6.4,8.2-11.5,14.7-14.3l62.3-24.1L333,487H178.9z"/>
		</g>
		<g>
			<path fill="#DA5A47" d="M487,487l-19.3-52.9c-2.9-6.4-8.2-11.5-14.7-14.3l-62.3-24.1L333,487H487z"/>
		</g>
		<g>
			<path fill="#3E3E3F" d="M318.5,294.6c0-5.3-4.3-9.6-9.6-9.6l0,0c0,0.1,0,0.2,0,0.3c0,5.3-4.3,9.6-9.6,9.6
				c0.1,5.2,4.4,9.3,9.6,9.3C314.2,304.2,318.5,300,318.5,294.6z"/>
		</g>
		<g>
			<path fill="#3E3E3F" d="M366.6,294.6c0-5.3-4.3-9.6-9.6-9.6l0,0c0,0.1,0,0.2,0,0.3c0,5.3-4.3,9.6-9.6,9.6
				c0.1,5.2,4.4,9.3,9.6,9.3C362.3,304.2,366.6,300,366.6,294.6z"/>
		</g>
		<g>
			<path fill="#84462D" d="M260.8,265.6c0,10.4,4.8,57.1,4.8,62.5c0,0,0,0,4.8,9.6c0,0,0,0,4.8,0c0-6.7-4.8-62.5,14.5-77
				L260.8,265.6z"/>
		</g>
		<g>
			<path fill="#84462D" d="M405.2,265.6c0,10.4-4.8,57.1-4.8,62.5c0,0,0,0-4.8,9.6c0,0,0,0-4.8,0c0-6.7,4.8-62.5-14.5-77
				L405.2,265.6z"/>
		</g>
		<g>
			<path fill="#84462D" d="M294.4,342.6H333C333,320.7,304.1,324.4,294.4,342.6z"/>
			<path fill="#84462D" d="M333,342.6h38.5C361.8,324.4,333,320.7,333,342.6z"/>
		</g>
		<g>
			<polygon fill="#FACB1B" points="242.1,408.3 262.8,487 287.5,487 264.6,399.6 			"/>
		</g>
		<g>
			<polygon fill="#FACB1B" points="424.5,408.3 403.8,487 379.1,487 402,399.6 			"/>
		</g>
		<g>
			<path fill="#FFFFFF" d="M226.5,415.1l-13.7,4.6c-6.5,2.8-11.7,7.9-14.7,14.3l-19.2,53h57.3L226.5,415.1z"/>
		</g>
		<g>
			<path fill="#FFFFFF" d="M438.9,415.1l13.7,4.6c6.5,2.8,11.7,7.9,14.7,14.3l19.3,52.9h-57.3L438.9,415.1z"/>
		</g>
		<g>
			<g>
				<path fill="#FACB1B" d="M260.8,265.6c0,0-4.8-72.2,72.2-72.2c0,38.5,0,72.2,0,72.2H260.8z"/>
			</g>
			<g>
				<path fill="#F3B607" d="M405.2,265.6c0,0,4.8-72.2-72.2-72.2c0,38.5,0,72.2,0,72.2H405.2z"/>
			</g>
			<path fill="#FBE158" d="M347.4,217.5v-28.9c0-5.3-4.3-9.6-9.6-9.6h-9.6c-5.3,0-9.6,4.3-9.6,9.6v28.9c0.3,8.5-9.3,37.1-33.7,38.5
				c23.3,0,31.3,0,33.7,0h0.9h27.1h0.9c2.4,0,10.3,0,33.7,0C356.6,254.6,347.1,225.9,347.4,217.5z"/>
			<g>
				<path fill="#F3B607" d="M419.6,266.8c0,2.2-1.5,4.1-3.6,4.7c-9.3,2.5-37,8.6-83.1,8.6s-73.7-6.1-83.1-8.6
					c-2.1-0.5-3.6-2.5-3.6-4.7v-1.2c0-5.3,4.3-9.6,9.6-9.6h154c5.3,0,9.6,4.3,9.6,9.6v1.2H419.6z"/>
			</g>
			<path fill="#FACB1B" d="M256,256c-5.3,0-9.6,4.3-9.6,9.6v1.2c0,2.2,1.5,4.1,3.6,4.7c9.3,2.5,37,8.6,83.1,8.6V256H256z"/>
		</g>
	</g>
</g>
</svg>
